Coordinates
version=1
nRows=10
nColumns=63
inDegrees=yes

Units are S.I. units (second, meters, Newtons, ...)
If the header above contains a line with 'inDegrees', this indicates whether rotational values are in degrees (yes) or radians (no).

endheader
time	pelvis_tilt	pelvis_list	pelvis_rotation	pelvis_tx	pelvis_ty	pelvis_tz	hip_flexion_r	hip_adduction_r	hip_rotation_r	knee_angle_r	knee_angle_r_beta	ankle_angle_r	subtalar_angle_r	mtp_angle_r	hip_flexion_l	hip_adduction_l	hip_rotation_l	knee_angle_l	knee_angle_l_beta	ankle_angle_l	subtalar_angle_l	mtp_angle_l	L5_S1_Flex_Ext	L5_S1_Lat_Bending	L5_S1_axial_rotation	L4_L5_Flex_Ext	L4_L5_Lat_Bending	L4_L5_axial_rotation	L3_L4_Flex_Ext	L3_L4_Lat_Bending	L3_L4_axial_rotation	L2_L3_Flex_Ext	L2_L3_Lat_Bending	L2_L3_axial_rotation	L1_L2_Flex_Ext	L1_L2_Lat_Bending	L1_L2_axial_rotation	L1_T12_Flex_Ext	L1_T12_Lat_Bending	L1_T12_axial_rotation	Abs_r3	Abs_r2	Abs_r1	Abs_t1	Abs_t2	neck_flexion	neck_bending	neck_rotation	arm_flex_r	arm_add_r	arm_rot_r	elbow_flex_r	pro_sup_r	wrist_flex_r	wrist_dev_r	arm_flex_l	arm_add_l	arm_rot_l	elbow_flex_l	pro_sup_l	wrist_flex_l	wrist_dev_l
     11.65800000	    -52.92450426	     -3.00668909	      4.17923694	     -0.25970153	      1.01560291	      0.01339399	    104.28386311	     -7.39235808	     -1.06093853	     63.04321070	      1.10031160	      4.45327671	     -8.53602656	      0.00000000	    106.08268376	     -1.49124132	      7.72489058	    104.81689679	      1.82939996	      9.41061303	      2.41073952	      0.00000000	     -0.07828632	      0.15133720	     -0.97081041	     -0.14538553	      0.20127848	     -1.03148606	     -0.12861660	      0.36796127	     -1.03148606	     -0.08947344	      0.36796127	     -0.84945911	     -0.07269668	      0.30860682	     -0.78878346	     -0.04473280	      0.23442132	     -0.72810781	     -0.55919136	      1.71195667	     -5.39935628	      0.00000000	      0.00000000	      0.00000000	      0.00000000	      0.00000000	     74.56255428	     -8.60800106	     13.26060465	     24.37086911	     53.20401743	      0.00000000	      5.00000014	     72.45744343	     -9.88389638	      9.78683942	     30.74128597	     56.36738730	      0.00000000	      5.00000014
     11.66700000	    -52.85633018	     -3.07703065	      4.37137418	     -0.25892336	      1.01564513	      0.01307154	    102.85219295	     -7.64939781	     -1.69944003	     61.16158277	      1.06747100	      4.33723483	     -8.32555874	      0.00000000	    107.02101498	     -1.27174960	      7.90796993	    106.18206747	      1.85322668	     10.05159352	      1.98794989	      0.00000000	     -0.07718304	      0.15128949	     -0.99493947	     -0.14333662	      0.20121502	     -1.05712318	     -0.12680402	      0.36784527	     -1.05712318	     -0.08821250	      0.36784527	     -0.87057203	     -0.07167217	      0.30850953	     -0.80838832	     -0.04410239	      0.23434742	     -0.74620460	     -0.55131073	      1.71141697	     -5.53355483	      0.00000000	      0.00000000	      0.00000000	      0.00000000	      0.00000000	     74.41456777	     -8.65477912	     13.11768358	     24.25787810	     53.19742761	      0.00000000	      5.00000014	     72.38301017	     -9.78384035	      9.93951077	     30.65704774	     56.43113082	      0.00000000	      5.00000014
     11.67500000	    -52.76912922	     -3.00494407	      4.68113663	     -0.25816640	      1.01550425	      0.01282447	    101.50965035	     -7.93252345	     -2.04786492	     59.46162674	      1.03780117	      4.04970683	     -8.10283271	      0.00000000	    107.98946334	     -0.94581234	      7.93348384	    107.51305225	      1.87645675	     10.40426530	      1.67630821	      0.00000000	     -0.07865635	      0.12884755	     -1.05025755	     -0.14607271	      0.17136724	     -1.11589864	     -0.12922452	      0.31327994	     -1.11589864	     -0.08989635	      0.31327994	     -0.91897535	     -0.07304029	      0.26274593	     -0.85333426	     -0.04494424	      0.19958486	     -0.78769316	     -0.56183447	      1.45754928	     -5.84121740	      0.00000000	      0.00000000	      0.00000000	      0.00000000	      0.00000000	     74.24568971	     -8.65542140	     13.02866592	     24.18555674	     53.19258350	      0.00000000	      5.00000014	     72.37404342	     -9.74240436	     10.03983005	     30.60836097	     56.47206302	      0.00000000	      5.00000014
     11.68300000	    -52.67390471	     -2.94212402	      4.92111748	     -0.25732575	      1.01525750	      0.01264759	    100.13207217	     -8.13149731	     -2.39696981	     57.76032078	      1.00810777	      3.80972568	     -7.92436687	      0.00000000	    108.98930521	     -0.69861001	      7.92026783	    108.79579379	      1.89884481	     10.58290698	      1.33023428	      0.00000000	     -0.07855263	      0.10898709	     -1.08786637	     -0.14588009	      0.14495282	     -1.15585802	     -0.12905411	      0.26499120	     -1.15585802	     -0.08977780	      0.26499120	     -0.95188307	     -0.07294397	      0.22224646	     -0.88389142	     -0.04488497	      0.16882100	     -0.81589978	     -0.56109357	      1.23288371	     -6.05038638	      0.00000000	      0.00000000	      0.00000000	      0.00000000	      0.00000000	     74.09023532	     -8.67936454	     12.92033044	     24.12274290	     53.18277375	      0.00000000	      5.00000014	     72.32207692	     -9.67017968	     10.17792877	     30.54764948	     56.51934858	      0.00000000	      5.00000014
     11.69200000	    -52.57346597	     -2.90420969	      5.06289159	     -0.25645475	      1.01492026	      0.01255491	     98.71619687	     -8.21285816	     -2.72746623	     56.03704559	      0.97803095	      3.58737388	     -7.79357258	      0.00000000	    110.05696241	     -0.53068132	      7.88611227	    110.06465223	      1.92099057	     10.47701541	      0.93031446	      0.00000000	     -0.07745589	      0.09370760	     -1.10380905	     -0.14384334	      0.12463111	     -1.17279712	     -0.12725229	      0.22784067	     -1.17279712	     -0.08852434	      0.22784067	     -0.96583292	     -0.07192554	      0.19108854	     -0.89684485	     -0.04425830	      0.14515308	     -0.82785679	     -0.55325970	      1.06003914	     -6.13905480	      0.00000000	      0.00000000	      0.00000000	      0.00000000	      0.00000000	     73.91857147	     -8.71551810	     12.77203073	     24.07128266	     53.16633279	      0.00000000	      5.00000014	     72.26090951	     -9.58879487	     10.37846041	     30.47353385	     56.58373623	      0.00000000	      5.00000014
     11.70000000	    -52.46707475	     -3.04012867	      4.93723403	     -0.25561278	      1.01442210	      0.01267230	     97.25506708	     -8.01447603	     -3.23370782	     54.32250440	      0.94810656	      3.29624158	     -7.79874216	      0.00000000	    111.29413606	     -0.55796454	      7.98376243	    111.40637650	      1.94440808	      9.60545748	     -0.15781652	      0.00000000	     -0.07625402	      0.10284739	     -1.06535056	     -0.14161134	      0.13678703	     -1.13193497	     -0.12527773	      0.25006314	     -1.13193497	     -0.08715072	      0.25006314	     -0.93218174	     -0.07080948	      0.20972639	     -0.86559733	     -0.04357155	      0.15931060	     -0.79901292	     -0.54467485	      1.16343022	     -5.92516019	      0.00000000	      0.00000000	      0.00000000	      0.00000000	      0.00000000	     73.76635552	     -8.76923706	     12.27940739	     24.06485568	     53.11262435	      0.00000000	      5.00000014	     72.24254415	     -9.53119355	     10.97516728	     30.37148456	     56.78852262	      0.00000000	      5.00000014
     11.70800000	    -52.37731461	     -2.75133658	      5.27049849	     -0.25482011	      1.01408782	      0.01260225	     95.92651081	     -8.21106347	     -3.08789273	     52.76613449	      0.92094278	      2.93120776	     -7.72494276	      0.00000000	    112.33712582	     -0.26821477	      7.63499851	    112.48848609	      1.96329445	      9.39762022	     -0.24817873	      0.00000000	     -0.07740175	      0.05208434	     -1.12411217	     -0.14374278	      0.06927217	     -1.19436918	     -0.12716333	      0.12663785	     -1.19436918	     -0.08846245	      0.12663785	     -0.98359815	     -0.07187526	      0.10621038	     -0.91334114	     -0.04422736	      0.08067864	     -0.84308413	     -0.55287293	      0.58918842	     -6.25197467	      0.00000000	      0.00000000	      0.00000000	      0.00000000	      0.00000000	     73.56613751	     -8.73101949	     12.19428312	     24.02062869	     53.10588356	      0.00000000	      5.00000014	     72.25622099	     -9.52329236	     11.10652913	     30.30986597	     56.83367353	      0.00000000	      5.00000014
     11.71700000	    -52.30879878	     -2.50089100	      5.43386655	     -0.25412769	      1.01376579	      0.01277364	     94.55816469	     -8.20468028	     -2.93363653	     51.14215266	      0.89259895	      2.68124448	     -7.71040079	      0.00000000	    113.46020559	     -0.15894183	      7.31146731	    113.54475154	      1.98172976	      8.88203215	     -0.37201651	      0.00000000	     -0.07748967	      0.00511779	     -1.14725180	     -0.14390606	      0.00680666	     -1.21895504	     -0.12730777	      0.01244340	     -1.21895504	     -0.08856294	      0.01244340	     -1.00384532	     -0.07195690	      0.01043620	     -0.93214209	     -0.04427760	      0.00792746	     -0.86043885	     -0.55350094	      0.05789349	     -6.38067033	      0.00000000	      0.00000000	      0.00000000	      0.00000000	      0.00000000	     73.36346152	     -8.73356716	     12.05703911	     23.99595969	     53.07939987	      0.00000000	      5.00000014	     72.32368607	     -9.49749422	     11.31479757	     30.23656022	     56.88323530	      0.00000000	      5.00000014
     11.72500000	    -52.24834736	     -2.23011185	      5.34700602	     -0.25353722	      1.01331896	      0.01334084	     93.25025187	     -7.88619932	     -2.67577870	     49.61929511	      0.86602007	      2.07201755	     -8.39244051	      0.00000000	    114.70345519	     -0.29948101	      6.83831005	    114.62200766	      2.00053143	      7.19196783	     -2.23546230	      0.00000000	     -0.07623096	     -0.04368041	     -1.11520845	     -0.14156851	     -0.05809495	     -1.18490898	     -0.12523984	     -0.10620455	     -1.18490898	     -0.08712436	     -0.10620455	     -0.97580740	     -0.07078807	     -0.08907310	     -0.90610687	     -0.04355837	     -0.06766096	     -0.83640634	     -0.54451010	     -0.49412156	     -6.20245486	      0.00000000	      0.00000000	      0.00000000	      0.00000000	      0.00000000	     73.06119066	     -8.54417508	     10.44646000	     24.07770977	     52.87360398	      0.00000000	      5.00000014	     72.62479696	     -9.77057560	     13.25775175	     29.94763461	     57.51123365	      0.00000000	      5.00000014
     11.73300000	    -52.19816097	     -1.94353105	      5.58133486	     -0.25302005	      1.01305072	      0.01344369	     91.95480014	     -7.99556753	     -2.48460280	     48.20029780	      0.84125390	      1.83269130	     -8.24794413	      0.00000000	    115.78344189	     -0.14016113	      6.49401611	    115.53788991	      2.01651659	      6.97802192	     -2.10265563	      0.00000000	     -0.07629127	     -0.09542837	     -1.15069627	     -0.14168052	     -0.12691973	     -1.22261478	     -0.12533893	     -0.23202454	     -1.22261478	     -0.08719329	     -0.23202454	     -1.00685923	     -0.07084407	     -0.19459753	     -0.93494072	     -0.04359283	     -0.14781855	     -0.86302220	     -0.54494092	     -1.07950482	     -6.39982743	      0.00000000	      0.00000000	      0.00000000	      0.00000000	      0.00000000	     72.90244157	     -8.54818286	     10.35549234	     23.99845316	     52.85762002	      0.00000000	      5.00000014	     72.69477476	     -9.73738812	     13.33808951	     29.87638690	     57.52887776	      0.00000000	      5.00000014
